# 3ds Max Wavefront OBJ Exporter v0.99 - (c)2007 guruware
# File Created: 12.01.2022 11:14:13

mtllib planet_rings.mtl

#
# object planet_rings
#

v  -85.4222 -43.5248 -0.0000
v  -77.5677 -56.3563 -0.0000
v  -51.3469 -37.3057 -0.0000
v  -56.5463 -28.8118 -0.0000
v  -60.3619 -19.6128 -0.0000
v  -91.1864 -29.6282 -0.0000
v  60.3619 19.6128 0.0000
v  91.1864 29.6282 0.0000
v  85.4222 43.5248 0.0000
v  56.5463 28.8118 0.0000
v  51.3469 37.3057 0.0000
v  77.5677 56.3563 0.0000
v  94.6913 14.9976 0.0000
v  62.6820 9.9279 0.0000
v  63.4682 0.0000 0.0000
v  95.8790 0.0000 0.0000
v  -63.4682 0.0000 0.0000
v  -95.8790 0.0000 0.0000
v  -94.6913 -14.9976 -0.0000
v  -62.6820 -9.9279 0.0000
v  -67.7915 -67.7915 -0.0000
v  -56.3563 -77.5677 -0.0000
v  -37.3057 -51.3469 -0.0000
v  -44.8754 -44.8754 -0.0000
v  67.7915 67.7915 0.0000
v  44.8754 44.8754 0.0000
v  37.3057 51.3469 0.0000
v  56.3563 77.5677 0.0000
v  94.6913 -14.9976 -0.0000
v  62.6820 -9.9279 0.0000
v  60.3619 -19.6128 -0.0000
v  91.1864 -29.6282 -0.0000
v  -60.3619 19.6128 0.0000
v  -91.1864 29.6282 0.0000
v  -94.6913 14.9976 0.0000
v  -62.6820 9.9279 0.0000
v  -43.5248 -85.4222 -0.0000
v  -29.6282 -91.1864 -0.0000
v  -19.6128 -60.3619 -0.0000
v  -28.8118 -56.5463 -0.0000
v  43.5248 85.4222 0.0000
v  28.8118 56.5463 0.0000
v  19.6128 60.3619 0.0000
v  29.6282 91.1864 0.0000
v  85.4222 -43.5248 -0.0000
v  56.5463 -28.8118 -0.0000
v  51.3469 -37.3057 -0.0000
v  77.5677 -56.3563 -0.0000
v  -51.3469 37.3057 0.0000
v  -77.5677 56.3563 0.0000
v  -85.4222 43.5248 0.0000
v  -56.5463 28.8118 0.0000
v  -14.9976 -94.6913 -0.0000
v  0.0000 -95.8790 -0.0000
v  0.0000 -63.4682 -0.0000
v  -9.9279 -62.6820 -0.0000
v  14.9976 94.6913 0.0000
v  9.9279 62.6820 0.0000
v  0.0000 63.4682 0.0000
v  0.0000 95.8790 0.0000
v  67.7915 -67.7915 -0.0000
v  44.8754 -44.8754 -0.0000
v  37.3057 -51.3469 -0.0000
v  56.3563 -77.5677 -0.0000
v  -37.3057 51.3469 0.0000
v  -56.3563 77.5677 0.0000
v  -67.7915 67.7915 0.0000
v  -44.8754 44.8754 0.0000
v  14.9976 -94.6913 -0.0000
v  29.6282 -91.1864 -0.0000
v  19.6128 -60.3619 -0.0000
v  9.9279 -62.6820 -0.0000
v  -14.9976 94.6913 0.0000
v  -9.9279 62.6820 0.0000
v  -19.6128 60.3619 0.0000
v  -29.6282 91.1864 0.0000
v  43.5248 -85.4222 -0.0000
v  28.8118 -56.5463 -0.0000
v  -43.5248 85.4222 0.0000
v  -28.8118 56.5463 0.0000
# 80 vertices

vn 0.0000 0.0000 1.0000
# 1 vertex normals

vt 0.0000 0.5000 0.0000
vt 0.0000 1.0000 0.0000
vt 0.9997 1.0000 0.0000
vt 0.9997 0.5000 0.0000
vt 0.9997 0.0000 0.0000
vt 0.0000 0.0000 0.0000
vt 0.9997 0.0000 0.0000
vt 0.0000 0.0000 0.0000
vt 0.0000 0.5000 0.0000
vt 0.9997 0.5000 0.0000
vt 0.9997 1.0000 0.0000
vt 0.0000 1.0000 0.0000
vt 0.0000 0.5000 0.0000
vt 0.0000 1.0000 0.0000
vt 0.9997 1.0000 0.0000
vt 0.9997 0.5000 0.0000
vt 0.9997 0.0000 0.0000
vt 0.0000 0.0000 0.0000
vt 0.9997 0.0000 0.0000
vt 0.0000 0.0000 0.0000
vt 0.0000 0.5000 0.0000
vt 0.9997 0.5000 0.0000
vt 0.9997 1.0000 0.0000
vt 0.0000 1.0000 0.0000
vt 0.0000 0.5000 0.0000
vt 0.0000 1.0000 0.0000
vt 0.9997 1.0000 0.0000
vt 0.9997 0.5000 0.0000
vt 0.9997 0.0000 0.0000
vt 0.0000 0.0000 0.0000
vt 0.9997 0.0000 0.0000
vt 0.0000 0.0000 0.0000
vt 0.0000 0.5000 0.0000
vt 0.9997 0.5000 0.0000
vt 0.9997 1.0000 0.0000
vt 0.0000 1.0000 0.0000
vt 0.0000 0.5000 0.0000
vt 0.0000 1.0000 0.0000
vt 0.9997 1.0000 0.0000
vt 0.9997 0.5000 0.0000
vt 0.9997 0.0000 0.0000
vt 0.0000 0.0000 0.0000
vt 0.9997 0.0000 0.0000
vt 0.0000 0.0000 0.0000
vt 0.0000 0.5000 0.0000
vt 0.9997 0.5000 0.0000
vt 0.9997 1.0000 0.0000
vt 0.0000 1.0000 0.0000
vt 0.0000 0.5000 0.0000
vt 0.0000 1.0000 0.0000
vt 0.9997 1.0000 0.0000
vt 0.9997 0.5000 0.0000
vt 0.9997 0.0000 0.0000
vt 0.0000 0.0000 0.0000
vt 0.9997 0.0000 0.0000
vt 0.0000 0.0000 0.0000
vt 0.0000 0.5000 0.0000
vt 0.9997 0.5000 0.0000
vt 0.9997 1.0000 0.0000
vt 0.0000 1.0000 0.0000
vt 0.0000 0.5000 0.0000
vt 0.0000 1.0000 0.0000
vt 0.9997 1.0000 0.0000
vt 0.9997 0.5000 0.0000
vt 0.9997 0.0000 0.0000
vt 0.0000 0.0000 0.0000
vt 0.9997 0.0000 0.0000
vt 0.0000 0.0000 0.0000
vt 0.0000 0.5000 0.0000
vt 0.9997 0.5000 0.0000
vt 0.9997 1.0000 0.0000
vt 0.0000 1.0000 0.0000
vt 0.0000 0.5000 0.0000
vt 0.0000 1.0000 0.0000
vt 0.9997 1.0000 0.0000
vt 0.9997 0.5000 0.0000
vt 0.9997 0.0000 0.0000
vt 0.0000 0.0000 0.0000
vt 0.9997 0.0000 0.0000
vt 0.0000 0.0000 0.0000
vt 0.0000 0.5000 0.0000
vt 0.9997 0.5000 0.0000
vt 0.9997 1.0000 0.0000
vt 0.0000 1.0000 0.0000
vt 0.0000 0.5000 0.0000
vt 0.0000 1.0000 0.0000
vt 0.9997 1.0000 0.0000
vt 0.9997 0.5000 0.0000
vt 0.9997 0.0000 0.0000
vt 0.0000 0.0000 0.0000
vt 0.9997 0.0000 0.0000
vt 0.0000 0.0000 0.0000
vt 0.0000 0.5000 0.0000
vt 0.9997 0.5000 0.0000
vt 0.9997 1.0000 0.0000
vt 0.0000 1.0000 0.0000
vt 0.0000 0.5000 0.0000
vt 0.0000 1.0000 0.0000
vt 0.9997 1.0000 0.0000
vt 0.9997 0.5000 0.0000
vt 0.9997 0.0000 0.0000
vt 0.0000 0.0000 0.0000
vt 0.9997 0.0000 0.0000
vt 0.0000 0.0000 0.0000
vt 0.0000 0.5000 0.0000
vt 0.9997 0.5000 0.0000
vt 0.9997 1.0000 0.0000
vt 0.0000 1.0000 0.0000
vt 0.0000 0.5000 0.0000
vt 0.0000 1.0000 0.0000
vt 0.9997 1.0000 0.0000
vt 0.9997 0.5000 0.0000
vt 0.9997 0.0000 0.0000
vt 0.0000 0.0000 0.0000
vt 0.9997 0.0000 0.0000
vt 0.0000 0.0000 0.0000
vt 0.0000 0.5000 0.0000
vt 0.9997 0.5000 0.0000
vt 0.9997 1.0000 0.0000
vt 0.0000 1.0000 0.0000
# 120 texture coords

o planet_rings
g planet_rings
usemtl planet_rings_1
s 1
f 1/1/1 2/2/1 3/3/1 
f 3/3/1 4/4/1 1/1/1 
f 1/1/1 4/4/1 5/5/1 
f 5/5/1 6/6/1 1/1/1 
f 7/7/1 8/8/1 9/9/1 
f 9/9/1 10/10/1 7/7/1 
f 11/11/1 10/10/1 9/9/1 
f 9/9/1 12/12/1 11/11/1 
f 13/13/1 8/14/1 7/15/1 
f 7/15/1 14/16/1 13/13/1 
f 13/13/1 14/16/1 15/17/1 
f 15/17/1 16/18/1 13/13/1 
f 17/19/1 18/20/1 19/21/1 
f 19/21/1 20/22/1 17/19/1 
f 5/23/1 20/22/1 19/21/1 
f 19/21/1 6/24/1 5/23/1 
f 21/25/1 22/26/1 23/27/1 
f 23/27/1 24/28/1 21/25/1 
f 21/25/1 24/28/1 3/29/1 
f 3/29/1 2/30/1 21/25/1 
f 11/31/1 12/32/1 25/33/1 
f 25/33/1 26/34/1 11/31/1 
f 27/35/1 26/34/1 25/33/1 
f 25/33/1 28/36/1 27/35/1 
f 29/37/1 16/38/1 15/39/1 
f 15/39/1 30/40/1 29/37/1 
f 29/37/1 30/40/1 31/41/1 
f 31/41/1 32/42/1 29/37/1 
f 33/43/1 34/44/1 35/45/1 
f 35/45/1 36/46/1 33/43/1 
f 17/47/1 36/46/1 35/45/1 
f 35/45/1 18/48/1 17/47/1 
f 37/49/1 38/50/1 39/51/1 
f 39/51/1 40/52/1 37/49/1 
f 37/49/1 40/52/1 23/53/1 
f 23/53/1 22/54/1 37/49/1 
f 27/55/1 28/56/1 41/57/1 
f 41/57/1 42/58/1 27/55/1 
f 43/59/1 42/58/1 41/57/1 
f 41/57/1 44/60/1 43/59/1 
f 45/61/1 32/62/1 31/63/1 
f 31/63/1 46/64/1 45/61/1 
f 45/61/1 46/64/1 47/65/1 
f 47/65/1 48/66/1 45/61/1 
f 49/67/1 50/68/1 51/69/1 
f 51/69/1 52/70/1 49/67/1 
f 33/71/1 52/70/1 51/69/1 
f 51/69/1 34/72/1 33/71/1 
f 53/73/1 54/74/1 55/75/1 
f 55/75/1 56/76/1 53/73/1 
f 53/73/1 56/76/1 39/77/1 
f 39/77/1 38/78/1 53/73/1 
f 43/79/1 44/80/1 57/81/1 
f 57/81/1 58/82/1 43/79/1 
f 59/83/1 58/82/1 57/81/1 
f 57/81/1 60/84/1 59/83/1 
f 61/85/1 48/86/1 47/87/1 
f 47/87/1 62/88/1 61/85/1 
f 61/85/1 62/88/1 63/89/1 
f 63/89/1 64/90/1 61/85/1 
f 65/91/1 66/92/1 67/93/1 
f 67/93/1 68/94/1 65/91/1 
f 49/95/1 68/94/1 67/93/1 
f 67/93/1 50/96/1 49/95/1 
f 69/97/1 70/98/1 71/99/1 
f 71/99/1 72/100/1 69/97/1 
f 69/97/1 72/100/1 55/101/1 
f 55/101/1 54/102/1 69/97/1 
f 59/103/1 60/104/1 73/105/1 
f 73/105/1 74/106/1 59/103/1 
f 75/107/1 74/106/1 73/105/1 
f 73/105/1 76/108/1 75/107/1 
f 77/109/1 64/110/1 63/111/1 
f 63/111/1 78/112/1 77/109/1 
f 77/109/1 78/112/1 71/113/1 
f 71/113/1 70/114/1 77/109/1 
f 75/115/1 76/116/1 79/117/1 
f 79/117/1 80/118/1 75/115/1 
f 65/119/1 80/118/1 79/117/1 
f 79/117/1 66/120/1 65/119/1 
# 80 faces

