# 3ds Max Wavefront OBJ Exporter v0.99 - (c)2007 guruware
# File Created: 13.01.2022 00:43:32

#
# object atmo_glow_ring
#

v  0.0000 48.8024 10.9442
v  -0.0000 53.4324 10.9442
v  -4.8293 53.2156 10.9442
v  -4.4143 48.6041 10.9442
v  -9.6197 52.5667 10.9442
v  -8.7930 48.0110 10.9442
v  -14.3327 51.4910 10.9442
v  -13.1009 47.0277 10.9442
v  -18.9303 49.9971 10.9442
v  -17.3034 45.6623 10.9442
v  -23.3755 48.0971 10.9442
v  -21.3665 43.9256 10.9442
v  -27.6324 45.8064 10.9442
v  -25.2577 41.8317 10.9442
v  -31.6669 43.1432 10.9442
v  -28.9454 39.3975 10.9442
v  -35.4464 40.1292 10.9442
v  -32.4001 36.6424 10.9442
v  -38.9405 36.7885 10.9442
v  -35.5939 33.5888 10.9442
v  -42.1211 33.1480 10.9442
v  -38.5012 30.2612 10.9442
v  -44.9626 29.2370 10.9442
v  -41.0985 26.6864 10.9442
v  -47.4420 25.0871 10.9442
v  -43.3648 22.8931 10.9442
v  -49.5395 20.7317 10.9442
v  -45.2820 18.9120 10.9442
v  -51.2381 16.2058 10.9442
v  -46.8347 14.7750 10.9442
v  -52.5242 11.5458 10.9442
v  -48.0102 10.5155 10.9442
v  -53.3873 6.7893 10.9442
v  -48.7992 6.1678 10.9442
v  -53.8207 1.9746 10.9442
v  -49.1953 1.7669 10.9442
v  -53.8207 -2.8596 10.9442
v  -49.1953 -2.6518 10.9442
v  -53.3873 -7.6743 10.9442
v  -48.7992 -7.0528 10.9442
v  -52.5242 -12.4308 10.9442
v  -48.0102 -11.4005 10.9442
v  -51.2381 -17.0908 10.9442
v  -46.8347 -15.6600 10.9442
v  -49.5395 -21.6167 10.9442
v  -45.2820 -19.7970 10.9442
v  -47.4420 -25.9721 10.9442
v  -43.3648 -23.7781 10.9442
v  -44.9626 -30.1220 10.9442
v  -41.0984 -27.5713 10.9442
v  -42.1211 -34.0330 10.9442
v  -38.5012 -31.1462 10.9442
v  -38.9405 -37.6734 10.9442
v  -35.5939 -34.4738 10.9442
v  -35.4464 -41.0142 10.9442
v  -32.4001 -37.5274 10.9442
v  -31.6669 -44.0282 10.9442
v  -28.9454 -40.2824 10.9442
v  -27.6324 -46.6913 10.9442
v  -25.2577 -42.7167 10.9442
v  -23.3755 -48.9821 10.9442
v  -21.3666 -44.8106 10.9442
v  -18.9303 -50.8821 10.9442
v  -17.3034 -46.5472 10.9442
v  -14.3327 -52.3759 10.9442
v  -13.1009 -47.9127 10.9442
v  -9.6197 -53.4516 10.9442
v  -8.7930 -48.8960 10.9442
v  -4.8293 -54.1005 10.9442
v  -4.4143 -49.4891 10.9442
v  -0.0000 -54.3174 10.9442
v  -0.0000 -49.6874 10.9442
v  4.8293 -54.1005 10.9442
v  4.4143 -49.4891 10.9442
v  9.6197 -53.4516 10.9442
v  8.7930 -48.8960 10.9442
v  14.3327 -52.3759 10.9442
v  13.1010 -47.9127 10.9442
v  18.9303 -50.8821 10.9442
v  17.3034 -46.5472 10.9442
v  23.3755 -48.9821 10.9442
v  21.3666 -44.8106 10.9442
v  27.6324 -46.6913 10.9442
v  25.2577 -42.7167 10.9442
v  31.6669 -44.0282 10.9442
v  28.9454 -40.2824 10.9442
v  35.4464 -41.0141 10.9442
v  32.4001 -37.5274 10.9442
v  38.9405 -37.6734 10.9442
v  35.5939 -34.4738 10.9442
v  42.1211 -34.0330 10.9442
v  38.5012 -31.1462 10.9442
v  44.9626 -30.1220 10.9442
v  41.0985 -27.5713 10.9442
v  47.4420 -25.9721 10.9442
v  43.3648 -23.7781 10.9442
v  49.5395 -21.6167 10.9442
v  45.2820 -19.7970 10.9442
v  51.2381 -17.0907 10.9442
v  46.8347 -15.6600 10.9442
v  52.5242 -12.4308 10.9442
v  48.0102 -11.4005 10.9442
v  53.3873 -7.6743 10.9442
v  48.7992 -7.0528 10.9442
v  53.8207 -2.8596 10.9442
v  49.1953 -2.6518 10.9442
v  53.8207 1.9746 10.9442
v  49.1953 1.7669 10.9442
v  53.3873 6.7893 10.9442
v  48.7992 6.1678 10.9442
v  52.5242 11.5458 10.9442
v  48.0102 10.5155 10.9442
v  51.2381 16.2058 10.9442
v  46.8347 14.7750 10.9442
v  49.5395 20.7317 10.9442
v  45.2820 18.9120 10.9442
v  47.4420 25.0872 10.9442
v  43.3648 22.8931 10.9442
v  44.9626 29.2371 10.9442
v  41.0985 26.6864 10.9442
v  42.1211 33.1480 10.9442
v  38.5012 30.2612 10.9442
v  38.9405 36.7885 10.9442
v  35.5939 33.5888 10.9442
v  35.4464 40.1292 10.9442
v  32.4001 36.6424 10.9442
v  31.6669 43.1432 10.9442
v  28.9454 39.3975 10.9442
v  27.6324 45.8064 10.9442
v  25.2577 41.8317 10.9442
v  23.3755 48.0971 10.9442
v  21.3665 43.9256 10.9442
v  18.9303 49.9971 10.9442
v  17.3034 45.6623 10.9442
v  14.3327 51.4910 10.9442
v  13.1009 47.0277 10.9442
v  9.6197 52.5667 10.9442
v  8.7930 48.0110 10.9442
v  4.8293 53.2156 10.9442
v  4.4143 48.6041 10.9442
# 140 vertices

vn 0.0000 0.0000 1.0000
vn 0.0000 0.9749 0.2225
vn -0.0874 0.9710 0.2225
vn -0.1741 0.9593 0.2225
vn -0.2594 0.9398 0.2225
vn -0.3426 0.9128 0.2225
vn -0.4230 0.8784 0.2225
vn -0.5000 0.8369 0.2225
vn -0.5730 0.7887 0.2225
vn -0.6414 0.7342 0.2225
vn -0.7047 0.6737 0.2225
vn -0.0000 -0.0000 1.0000
vn -0.7622 0.6079 0.2225
vn -0.8136 0.5371 0.2225
vn -0.8585 0.4620 0.2225
vn -0.8965 0.3832 0.2225
vn -0.9272 0.3013 0.2225
vn 0.0000 -0.0000 1.0000
vn -0.9505 0.2169 0.2225
vn -0.9661 0.1309 0.2225
vn -0.9740 0.0437 0.2225
vn -0.9740 -0.0437 0.2225
vn -0.9661 -0.1309 0.2225
vn -0.9505 -0.2169 0.2225
vn -0.9272 -0.3013 0.2225
vn -0.8965 -0.3832 0.2225
vn -0.8585 -0.4620 0.2225
vn -0.8136 -0.5371 0.2225
vn -0.7622 -0.6079 0.2225
vn -0.7047 -0.6737 0.2225
vn -0.6414 -0.7342 0.2225
vn -0.5730 -0.7887 0.2225
vn -0.5000 -0.8369 0.2225
vn -0.4230 -0.8784 0.2225
vn -0.3426 -0.9128 0.2225
vn -0.2594 -0.9398 0.2225
vn -0.1741 -0.9593 0.2225
vn -0.0874 -0.9710 0.2225
vn 0.0000 -0.9749 0.2225
vn -0.0000 0.0000 1.0000
vn 0.0874 -0.9710 0.2225
vn 0.1741 -0.9593 0.2225
vn 0.2594 -0.9398 0.2225
vn 0.3426 -0.9128 0.2225
vn 0.4230 -0.8784 0.2225
vn 0.5000 -0.8369 0.2225
vn 0.5730 -0.7887 0.2225
vn 0.6414 -0.7342 0.2225
vn 0.7047 -0.6737 0.2225
vn 0.7622 -0.6079 0.2225
vn 0.8136 -0.5371 0.2225
vn 0.8585 -0.4620 0.2225
vn 0.8965 -0.3832 0.2225
vn 0.9272 -0.3013 0.2225
vn 0.9505 -0.2169 0.2225
vn 0.9661 -0.1309 0.2225
vn 0.9740 -0.0437 0.2225
vn 0.9740 0.0437 0.2225
vn 0.9661 0.1309 0.2225
vn 0.9505 0.2169 0.2225
vn 0.9272 0.3013 0.2225
vn 0.8965 0.3832 0.2225
vn 0.8585 0.4620 0.2225
vn 0.8136 0.5371 0.2225
vn 0.7622 0.6079 0.2225
vn 0.7047 0.6737 0.2225
vn 0.6414 0.7342 0.2225
vn 0.5730 0.7887 0.2225
vn 0.5000 0.8369 0.2225
vn 0.4230 0.8784 0.2225
vn 0.3426 0.9128 0.2225
vn 0.2594 0.9398 0.2225
vn 0.1741 0.9593 0.2225
vn 0.0874 0.9710 0.2225
# 74 vertex normals

vt 0.5000 0.9638 1.0000
vt 0.4584 0.9619 1.0000
vt 0.4171 0.9564 1.0000
vt 0.3765 0.9471 1.0000
vt 0.3369 0.9342 1.0000
vt 0.2986 0.9179 1.0000
vt 0.2619 0.8982 1.0000
vt 0.2271 0.8752 1.0000
vt 0.1945 0.8493 1.0000
vt 0.1644 0.8205 1.0000
vt 0.1370 0.7892 0.7500
vt 0.1125 0.7555 0.7500
vt 0.0912 0.7198 0.7500
vt 0.0731 0.6823 0.7500
vt 0.0584 0.6433 0.7500
vt 0.0474 0.6032 0.7500
vt 0.0399 0.5623 0.7500
vt 0.0362 0.5208 0.7500
vt 0.0362 0.4792 0.7500
vt 0.0399 0.4377 0.7500
vt 0.0474 0.3968 0.7500
vt 0.0584 0.3567 0.5000
vt 0.0731 0.3177 0.5000
vt 0.0912 0.2802 0.5000
vt 0.1125 0.2445 0.5000
vt 0.1370 0.2108 0.5000
vt 0.1644 0.1795 0.2500
vt 0.1945 0.1507 0.2500
vt 0.2271 0.1248 0.2500
vt 0.2619 0.1018 0.2500
vt 0.2986 0.0821 0.2500
vt 0.3369 0.0658 0.2500
vt 0.3765 0.0529 0.2500
vt 0.4171 0.0436 0.2500
vt 0.4584 0.0381 0.2500
vt 0.5000 0.0362 0.2500
vt 0.5416 0.0381 0.2500
vt 0.5829 0.0436 0.2500
vt 0.6235 0.0529 0.2500
vt 0.6631 0.0658 0.2500
vt 0.7014 0.0821 0.2500
vt 0.7381 0.1018 0.2500
vt 0.7729 0.1248 0.2500
vt 0.8055 0.1507 0.2500
vt 0.8356 0.1795 0.2500
vt 0.8630 0.2108 0.5000
vt 0.8875 0.2445 0.5000
vt 0.9088 0.2802 0.5000
vt 0.9269 0.3177 0.5000
vt 0.9416 0.3567 0.5000
vt 0.9526 0.3968 0.7500
vt 0.9601 0.4377 0.7500
vt 0.9638 0.4792 0.7500
vt 0.9638 0.5208 0.7500
vt 0.9601 0.5623 0.7500
vt 0.9526 0.6032 0.7500
vt 0.9416 0.6433 0.7500
vt 0.9269 0.6823 0.7500
vt 0.9088 0.7198 0.7500
vt 0.8875 0.7555 0.7500
vt 0.8630 0.7892 0.7500
vt 0.8356 0.8205 1.0000
vt 0.8055 0.8493 1.0000
vt 0.7729 0.8752 1.0000
vt 0.7381 0.8982 1.0000
vt 0.7014 0.9179 1.0000
vt 0.6631 0.9342 1.0000
vt 0.6235 0.9471 1.0000
vt 0.5829 0.9564 1.0000
vt 0.5416 0.9619 1.0000
vt 0.5000 0.9638 1.0000
vt 0.5000 0.8308 1.0000
vt 0.4703 0.8295 1.0000
vt 0.4409 0.8255 1.0000
vt 0.4119 0.8189 1.0000
vt 0.3836 0.8097 1.0000
vt 0.3563 0.7980 1.0000
vt 0.3302 0.7840 1.0000
vt 0.3054 0.7676 1.0000
vt 0.2821 0.7491 1.0000
vt 0.2607 0.7286 1.0000
vt 0.2411 0.7063 0.7500
vt 0.2236 0.6822 0.7500
vt 0.2084 0.6568 0.7500
vt 0.1955 0.6300 0.7500
vt 0.1851 0.6022 0.7500
vt 0.1772 0.5736 0.5000
vt 0.1719 0.5444 0.5000
vt 0.1692 0.5148 0.5000
vt 0.1692 0.4852 0.5000
vt 0.1719 0.4556 0.5000
vt 0.1772 0.4264 0.5000
vt 0.1851 0.3978 0.2500
vt 0.1955 0.3700 0.2500
vt 0.2084 0.3432 0.2500
vt 0.2236 0.3178 0.2500
vt 0.2411 0.2937 0.2500
vt 0.2607 0.2714 0.0000
vt 0.2821 0.2509 0.0000
vt 0.3054 0.2324 0.0000
vt 0.3302 0.2160 0.0000
vt 0.3563 0.2020 0.0000
vt 0.3836 0.1903 0.0000
vt 0.4119 0.1811 0.0000
vt 0.4409 0.1745 0.0000
vt 0.4703 0.1705 0.0000
vt 0.5000 0.1692 0.0000
vt 0.5297 0.1705 0.0000
vt 0.5591 0.1745 0.0000
vt 0.5881 0.1811 0.0000
vt 0.6164 0.1903 0.0000
vt 0.6437 0.2020 0.0000
vt 0.6698 0.2160 0.0000
vt 0.6946 0.2324 0.0000
vt 0.7179 0.2509 0.0000
vt 0.7393 0.2714 0.0000
vt 0.7589 0.2937 0.2500
vt 0.7764 0.3178 0.2500
vt 0.7916 0.3432 0.2500
vt 0.8045 0.3700 0.2500
vt 0.8149 0.3978 0.2500
vt 0.8228 0.4264 0.5000
vt 0.8281 0.4556 0.5000
vt 0.8308 0.4852 0.5000
vt 0.8308 0.5148 0.5000
vt 0.8281 0.5444 0.5000
vt 0.8228 0.5736 0.5000
vt 0.8149 0.6022 0.7500
vt 0.8045 0.6300 0.7500
vt 0.7916 0.6568 0.7500
vt 0.7764 0.6822 0.7500
vt 0.7589 0.7063 0.7500
vt 0.7393 0.7286 1.0000
vt 0.7179 0.7491 1.0000
vt 0.6946 0.7676 1.0000
vt 0.6698 0.7840 1.0000
vt 0.6437 0.7980 1.0000
vt 0.6164 0.8097 1.0000
vt 0.5881 0.8189 1.0000
vt 0.5591 0.8255 1.0000
vt 0.5297 0.8295 1.0000
vt 0.5000 0.8308 1.0000
# 142 texture coords

o atmo_glow_ring
g atmo_glow_ring
s off
f 1/72/1 2/1/2 3/2/3 
f 3/2/3 4/73/1 1/72/1 
f 4/73/1 3/2/3 5/3/4 
f 5/3/4 6/74/1 4/73/1 
f 6/74/1 5/3/4 7/4/5 
f 7/4/5 8/75/1 6/74/1 
f 8/75/1 7/4/5 9/5/6 
f 9/5/6 10/76/1 8/75/1 
f 10/76/1 9/5/6 11/6/7 
f 11/6/7 12/77/1 10/76/1 
f 12/77/1 11/6/7 13/7/8 
f 13/7/8 14/78/1 12/77/1 
f 14/78/1 13/7/8 15/8/9 
f 15/8/9 16/79/1 14/78/1 
f 16/79/1 15/8/9 17/9/10 
f 17/9/10 18/80/1 16/79/1 
f 18/80/1 17/9/10 19/10/11 
f 19/10/11 20/81/1 18/80/1 
f 20/81/12 19/10/11 21/11/13 
f 21/11/13 22/82/12 20/81/12 
f 22/82/1 21/11/13 23/12/14 
f 23/12/14 24/83/1 22/82/1 
f 24/83/1 23/12/14 25/13/15 
f 25/13/15 26/84/1 24/83/1 
f 26/84/1 25/13/15 27/14/16 
f 27/14/16 28/85/1 26/84/1 
f 28/85/1 27/14/16 29/15/17 
f 29/15/17 30/86/1 28/85/1 
f 30/86/18 29/15/17 31/16/19 
f 31/16/19 32/87/18 30/86/18 
f 32/87/18 31/16/19 33/17/20 
f 33/17/20 34/88/18 32/87/18 
f 34/88/18 33/17/20 35/18/21 
f 35/18/21 36/89/18 34/88/18 
f 36/89/1 35/18/21 37/19/22 
f 37/19/22 38/90/1 36/89/1 
f 38/90/1 37/19/22 39/20/23 
f 39/20/23 40/91/1 38/90/1 
f 40/91/1 39/20/23 41/21/24 
f 41/21/24 42/92/1 40/91/1 
f 42/92/18 41/21/24 43/22/25 
f 43/22/25 44/93/18 42/92/18 
f 44/93/1 43/22/25 45/23/26 
f 45/23/26 46/94/1 44/93/1 
f 46/94/1 45/23/26 47/24/27 
f 47/24/27 48/95/1 46/94/1 
f 48/95/1 47/24/27 49/25/28 
f 49/25/28 50/96/1 48/95/1 
f 50/96/1 49/25/28 51/26/29 
f 51/26/29 52/97/1 50/96/1 
f 52/97/18 51/26/29 53/27/30 
f 53/27/30 54/98/18 52/97/18 
f 54/98/1 53/27/30 55/28/31 
f 55/28/31 56/99/1 54/98/1 
f 56/99/1 55/28/31 57/29/32 
f 57/29/32 58/100/1 56/99/1 
f 58/100/1 57/29/32 59/30/33 
f 59/30/33 60/101/1 58/100/1 
f 60/101/1 59/30/33 61/31/34 
f 61/31/34 62/102/1 60/101/1 
f 62/102/1 61/31/34 63/32/35 
f 63/32/35 64/103/1 62/102/1 
f 64/103/1 63/32/35 65/33/36 
f 65/33/36 66/104/1 64/103/1 
f 66/104/1 65/33/36 67/34/37 
f 67/34/37 68/105/1 66/104/1 
f 68/105/1 67/34/37 69/35/38 
f 69/35/38 70/106/1 68/105/1 
f 70/106/1 69/35/38 71/36/39 
f 71/36/39 72/107/1 70/106/1 
f 72/107/40 71/36/39 73/37/41 
f 73/37/41 74/108/40 72/107/40 
f 74/108/40 73/37/41 75/38/42 
f 75/38/42 76/109/40 74/108/40 
f 76/109/40 75/38/42 77/39/43 
f 77/39/43 78/110/40 76/109/40 
f 78/110/40 77/39/43 79/40/44 
f 79/40/44 80/111/40 78/110/40 
f 80/111/40 79/40/44 81/41/45 
f 81/41/45 82/112/40 80/111/40 
f 82/112/40 81/41/45 83/42/46 
f 83/42/46 84/113/40 82/112/40 
f 84/113/40 83/42/46 85/43/47 
f 85/43/47 86/114/40 84/113/40 
f 86/114/40 85/43/47 87/44/48 
f 87/44/48 88/115/40 86/114/40 
f 88/115/40 87/44/48 89/45/49 
f 89/45/49 90/116/40 88/115/40 
f 90/116/12 89/45/49 91/46/50 
f 91/46/50 92/117/12 90/116/12 
f 92/117/40 91/46/50 93/47/51 
f 93/47/51 94/118/40 92/117/40 
f 93/47/51 95/48/52 96/119/40 
f 96/119/40 94/118/40 93/47/51 
f 96/119/40 95/48/52 97/49/53 
f 97/49/53 98/120/40 96/119/40 
f 98/120/40 97/49/53 99/50/54 
f 99/50/54 100/121/40 98/120/40 
f 100/121/12 99/50/54 101/51/55 
f 101/51/55 102/122/12 100/121/12 
f 102/122/40 101/51/55 103/52/56 
f 103/52/56 104/123/40 102/122/40 
f 104/123/40 103/52/56 105/53/57 
f 105/53/57 106/124/40 104/123/40 
f 106/124/40 105/53/57 107/54/58 
f 107/54/58 108/125/40 106/124/40 
f 108/125/12 107/54/58 109/55/59 
f 109/55/59 110/126/12 108/125/12 
f 110/126/12 109/55/59 111/56/60 
f 111/56/60 112/127/12 110/126/12 
f 112/127/12 111/56/60 113/57/61 
f 113/57/61 114/128/12 112/127/12 
f 114/128/1 113/57/61 115/58/62 
f 115/58/62 116/129/1 114/128/1 
f 116/129/1 115/58/62 117/59/63 
f 117/59/63 118/130/1 116/129/1 
f 118/130/1 117/59/63 119/60/64 
f 119/60/64 120/131/1 118/130/1 
f 120/131/1 119/60/64 121/61/65 
f 121/61/65 122/132/1 120/131/1 
f 122/132/18 121/61/65 123/62/66 
f 123/62/66 124/133/18 122/132/18 
f 124/133/1 123/62/66 125/63/67 
f 125/63/67 126/134/1 124/133/1 
f 126/134/1 125/63/67 127/64/68 
f 127/64/68 128/135/1 126/134/1 
f 128/135/1 127/64/68 129/65/69 
f 129/65/69 130/136/1 128/135/1 
f 130/136/1 129/65/69 131/66/70 
f 131/66/70 132/137/1 130/136/1 
f 132/137/1 131/66/70 133/67/71 
f 133/67/71 134/138/1 132/137/1 
f 134/138/1 133/67/71 135/68/72 
f 135/68/72 136/139/1 134/138/1 
f 136/139/1 135/68/72 137/69/73 
f 137/69/73 138/140/1 136/139/1 
f 138/140/1 137/69/73 139/70/74 
f 139/70/74 140/141/1 138/140/1 
f 140/141/1 139/70/74 2/71/2 
f 2/71/2 1/142/1 140/141/1 
# 140 faces

