# 3ds Max Wavefront OBJ Exporter v0.99 - (c)2007 guruware
# File Created: 12.01.2022 12:37:38

#
# object planet_glow_plane
#

v  -55.0000 -31.3375 0.0000
v  -51.3467 -37.3056 0.0000
v  -44.8752 -44.8753 0.0000
v  -37.3056 -51.3468 0.0000
v  -31.3375 -55.0000 0.0000
v  31.3378 -55.0000 0.0000
v  37.3058 -51.3468 0.0000
v  44.8755 -44.8753 0.0000
v  51.3470 -37.3056 0.0000
v  55.0000 -31.3379 0.0000
v  55.0000 31.3381 0.0000
v  51.3470 37.3058 0.0000
v  44.8755 44.8755 0.0000
v  37.3058 51.3470 0.0000
v  31.3381 55.0000 0.0000
v  -31.3378 55.0000 0.0000
v  -37.3056 51.3470 0.0000
v  -44.8752 44.8755 0.0000
v  -51.3467 37.3058 0.0000
v  -55.0000 31.3377 0.0000
# 20 vertices

vn -0.0000 -0.0000 1.0000
vn -0.0000 0.0000 1.0000
vn 0.0000 0.0000 1.0000
vn 0.0000 -0.0000 1.0000
# 4 vertex normals

vt 0.0000 0.2151 0.0000
vt 0.0332 0.1609 0.0000
vt 0.0920 0.0920 0.0000
vt 0.1609 0.0332 0.0000
vt 0.2151 0.0000 0.0000
vt 0.7849 0.0000 0.0000
vt 0.8391 0.0332 0.0000
vt 0.9080 0.0920 0.0000
vt 0.9668 0.1609 0.0000
vt 1.0000 0.2151 0.0000
vt 1.0000 0.7849 0.0000
vt 0.9668 0.8391 0.0000
vt 0.9080 0.9080 0.0000
vt 0.8391 0.9668 0.0000
vt 0.7849 1.0000 0.0000
vt 0.2151 1.0000 0.0000
vt 0.1609 0.9668 0.0000
vt 0.0920 0.9080 0.0000
vt 0.0332 0.8391 0.0000
vt 0.0000 0.7849 0.0000
# 20 texture coords

o planet_glow_plane
g planet_glow_plane
s 1
f 1/1/1 2/2/1 3/3/1 
f 3/3/1 4/4/1 5/5/2 
f 5/5/2 6/6/3 7/7/4 
f 3/3/1 5/5/2 7/7/4 
f 7/7/4 8/8/3 9/9/1 
f 9/9/1 10/10/2 11/11/1 
f 7/7/4 9/9/1 11/11/1 
f 11/11/1 12/12/1 13/13/1 
f 13/13/1 14/14/1 15/15/1 
f 11/11/1 13/13/1 15/15/1 
f 15/15/1 16/16/3 17/17/3 
f 17/17/3 18/18/3 19/19/1 
f 15/15/1 17/17/3 19/19/1 
f 11/11/1 15/15/1 19/19/1 
f 7/7/4 11/11/1 19/19/1 
f 3/3/1 7/7/4 19/19/1 
f 1/1/1 3/3/1 19/19/1 
f 20/20/2 1/1/1 19/19/1 
# 18 faces

